<svg xmlns="http://www.w3.org/2000/svg" style="background-color:#FFF" viewBox="1111.86 729.26 289.23 275.96"><path stroke="black" fill="none" stroke-width="1" d="M1134.86, 730.47L1138.16, 731.58L1141.25, 733.37L1144.07, 735.83L1146.59, 738.98L1148.75, 742.8L1149.22, 745.43L1149.39, 748.09L1149.1, 750.71L1148.17, 753.23L1146.23, 756.38L1143.85, 759.27L1142.49, 760.52L1141, 761.62L1139.39, 762.52L1137.64, 763.2L1134.39, 764.08L1130.87, 764.33L1127.22, 763.92L1123.62, 762.82L1121.89, 762L1120.22, 761L1118.65, 759.8L1117.19, 758.41L1115.85, 756.82L1114.67, 755.03L1113.66, 753.03L1112.84, 750.82L1112.36, 748.15L1112.48, 745.46L1113.51, 740.12L1116.02, 736.94L1118.82, 734.36L1121.61, 732.43L1122.91, 731.72L1124.09, 731.19L1127.78, 730.28L1131.38, 730.04Z"/><path stroke="black" fill="none" stroke-width="1" d="M1133.3, 735.7L1135.67, 736.4L1137.83, 737.58L1139.68, 739.2L1141.07, 741.2L1141.9, 743.53L1142.19, 745.35L1142.2, 747.28L1141.84, 749.24L1141.08, 751.15L1139.84, 752.94L1138.07, 754.53L1135.71, 755.84L1134.29, 756.37L1132.7, 756.79L1130.52, 756.34L1128.39, 755.7L1126.43, 754.73L1124.74, 753.28L1123.43, 751.42L1122.53, 749.32L1122.06, 747.07L1122.02, 744.78L1122.42, 742.53L1123.25, 740.43L1124.52, 738.56L1126.23, 737.02L1128.46, 735.96L1130.85, 735.54Z"/><path stroke="black" fill="none" stroke-width="1" d="M1194.67, 730.2L1197.17, 730.52L1199.62, 731.16L1201.98, 732.12L1204.19, 733.39L1206.23, 734.99L1208.06, 736.92L1209.63, 739.17L1210.9, 741.76L1211.47, 744.76L1211.65, 747.6L1211.39, 750.28L1210.7, 752.82L1209.55, 755.21L1207.94, 757.46L1205.83, 759.58L1203.22, 761.59L1200.99, 762.76L1198.71, 763.59L1196.39, 764.1L1194.08, 764.31L1191.78, 764.23L1189.53, 763.88L1187.36, 763.29L1185.27, 762.46L1183.31, 761.41L1181.49, 760.17L1179.85, 758.75L1178.39, 757.17L1177.16, 755.44L1176.17, 753.58L1175.46, 751.62L1175.03, 749.56L1174.99, 746.74L1175.28, 743.92L1176.01, 741.21L1177.3, 738.69L1178.84, 736.57L1180.64, 734.75L1182.66, 733.23L1184.85, 732.01L1187.19, 731.1L1189.64, 730.49L1192.14, 730.19Z"/><path stroke="black" fill="none" stroke-width="1" d="M1193.84, 735.71L1197.07, 736.3L1199.21, 737.41L1200.95, 738.77L1202.3, 740.34L1203.27, 742.07L1203.87, 743.9L1204.12, 745.79L1204.04, 747.67L1203.63, 749.5L1202.9, 751.23L1201.88, 752.81L1200.57, 754.17L1198.99, 755.28L1197.15, 756.07L1195.06, 756.5L1192.73, 756.51L1190.19, 756.06L1188.75, 755.37L1187.58, 754.3L1185.63, 751.77L1184.75, 749.69L1184.3, 747.5L1184.16, 745.26L1184.19, 743.01L1184.47, 741.78L1184.93, 740.61L1186.34, 738.54L1188.28, 736.97L1189.41, 736.42L1190.62, 736.05L1192.21, 735.69Z"/><path stroke="black" fill="none" stroke-width="1" d="M1258.56, 730.2L1260.42, 730.62L1264.01, 732.01L1267.26, 734.05L1270.03, 736.63L1271.18, 738.1L1272.16, 739.65L1272.94, 741.3L1273.51, 743.01L1273.84, 744.78L1273.91, 746.59L1273.84, 749.46L1273.28, 752.13L1272.28, 754.58L1270.89, 756.79L1269.16, 758.74L1267.14, 760.42L1264.88, 761.81L1262.43, 762.89L1259.85, 763.65L1257.18, 764.07L1254.47, 764.14L1251.78, 763.83L1249.16, 763.12L1246.64, 762.01L1244.3, 760.48L1242.18, 758.5L1240.45, 756.58L1238.99, 754.28L1237.9, 751.67L1237.28, 748.8L1237.24, 745.75L1237.89, 742.55L1238.5, 740.92L1239.32, 739.27L1240.36, 737.62L1241.63, 735.98L1243.99, 733.77L1246.73, 732.08L1249.73, 730.9L1252.89, 730.21L1254.77, 729.98L1256.67, 729.98Z"/><path stroke="black" fill="none" stroke-width="1" d="M1257.32, 735.2L1259.33, 735.78L1261.21, 736.72L1262.89, 737.99L1264.3, 739.54L1265.38, 741.32L1266.06, 743.28L1266.28, 745.39L1266.19, 747.37L1265.8, 749.17L1265.15, 750.78L1264.26, 752.21L1263.18, 753.44L1261.93, 754.47L1260.55, 755.28L1259.08, 755.87L1257.55, 756.24L1255.99, 756.38L1254.43, 756.27L1252.92, 755.91L1251.49, 755.31L1250.16, 754.43L1248.97, 753.29L1247.96, 751.87L1247.11, 749.6L1246.55, 747.53L1246.26, 745.65L1246.21, 743.96L1246.38, 742.43L1246.74, 741.08L1247.27, 739.89L1247.94, 738.85L1249.6, 737.19L1251.5, 736.04L1253.45, 735.35L1255.24, 735.04Z"/><path stroke="black" fill="none" stroke-width="1" d="M1321.78, 730.42L1325.16, 731.44L1328.26, 733.06L1330.98, 735.26L1333.24, 738.04L1334.17, 739.65L1334.94, 741.4L1335.55, 743.29L1335.99, 745.32L1336.09, 747.19L1335.94, 749.09L1335.55, 750.99L1334.93, 752.86L1334.08, 754.68L1333.01, 756.42L1331.73, 758.04L1330.23, 759.52L1328.54, 760.83L1326.65, 761.94L1324.58, 762.83L1322.32, 763.46L1319.89, 763.81L1317.29, 763.84L1314.52, 763.53L1311.61, 762.85L1309.27, 761.97L1307.17, 760.82L1305.31, 759.43L1303.69, 757.83L1302.33, 756.06L1301.22, 754.15L1300.38, 752.13L1299.8, 750.02L1299.51, 747.87L1299.49, 745.7L1299.76, 743.55L1300.33, 741.44L1301.2, 739.41L1302.37, 737.49L1303.85, 735.71L1305.65, 734.1L1307.66, 732.72L1309.85, 731.61L1312.16, 730.78L1314.54, 730.2L1318.21, 730Z"/><path stroke="black" fill="none" stroke-width="1" d="M1320.52, 735.49L1322.2, 736.01L1323.79, 736.77L1325.25, 737.76L1326.54, 738.95L1327.61, 740.33L1328.43, 741.87L1328.95, 743.55L1329.13, 745.35L1328.93, 747.24L1328.45, 749.31L1327.55, 751.21L1326.3, 752.91L1324.76, 754.33L1322.97, 755.43L1321.01, 756.15L1318.94, 756.42L1316.81, 756.2L1314.69, 755.53L1312.89, 754.25L1311.42, 752.46L1310.3, 750.31L1309.55, 747.92L1309.19, 745.42L1309.23, 742.94L1309.71, 740.6L1310.87, 738.79L1312.22, 737.37L1313.73, 736.33L1315.36, 735.64L1317.06, 735.29L1318.79, 735.24Z"/><path stroke="black" fill="none" stroke-width="1" d="M1380.29, 729.77L1383.09, 730.18L1385.83, 730.97L1388.45, 732.12L1390.89, 733.59L1393.09, 735.35L1394.99, 737.38L1396.52, 739.65L1397.64, 742.14L1398.27, 744.8L1398.37, 747.62L1397.86, 750.57L1396.62, 753.8L1394.98, 756.56L1392.98, 758.85L1390.69, 760.69L1388.16, 762.09L1385.47, 763.06L1382.66, 763.62L1379.8, 763.76L1376.96, 763.51L1374.18, 762.87L1371.54, 761.85L1369.09, 760.48L1366.89, 758.75L1365.01, 756.68L1363.5, 754.28L1362.43, 751.56L1361.91, 749.4L1361.7, 747.2L1361.81, 742.78L1362.89, 740.45L1364.16, 738.21L1365.69, 736.16L1367.54, 734.37L1369.73, 732.46L1372.15, 731.08L1374.76, 730.19L1377.5, 729.76Z"/><path stroke="black" fill="none" stroke-width="1" d="M1382.58, 734L1384.35, 734.48L1386.66, 735.73L1388.62, 737.47L1390.06, 739.64L1390.55, 740.86L1390.85, 742.15L1391.18, 744.2L1391.1, 746.16L1390.65, 747.98L1389.88, 749.65L1388.83, 751.15L1387.56, 752.44L1386.11, 753.52L1384.53, 754.34L1382.88, 754.9L1381.19, 755.16L1379.51, 755.1L1377.9, 754.69L1376.4, 753.92L1375.06, 752.76L1373.92, 751.18L1373.04, 749.16L1372.59, 746.69L1371.9, 744.25L1371.51, 741.8L1371.58, 740.57L1371.92, 739.33L1372.81, 737.69L1374.02, 736.33L1375.48, 735.26L1377.13, 734.49L1378.91, 734.01L1380.74, 733.85Z"/><path stroke="black" fill="none" stroke-width="1" d="M1133.33, 789.95L1135.63, 790.4L1137.86, 791.12L1139.98, 792.1L1141.98, 793.33L1143.82, 794.78L1145.46, 796.44L1146.87, 798.3L1148.03, 800.34L1149.04, 802.48L1149.62, 804.69L1149.82, 806.93L1149.64, 809.17L1149.12, 811.37L1148.29, 813.51L1147.16, 815.54L1145.76, 817.45L1144.11, 819.18L1142.25, 820.71L1140.19, 822L1137.97, 823.02L1135.6, 823.74L1133.11, 824.13L1130.53, 824.14L1127.88, 823.75L1124.38, 822.8L1121.17, 821.27L1118.34, 819.21L1115.99, 816.7L1114.22, 813.8L1113.11, 810.58L1112.83, 808.86L1112.76, 807.09L1112.9, 805.27L1113.26, 803.41L1113.86, 801.36L1114.76, 799.45L1115.9, 797.68L1117.26, 796.05L1118.79, 794.57L1120.46, 793.22L1124.03, 790.95L1128.65, 789.98L1130.98, 789.76Z"/><path stroke="black" fill="none" stroke-width="1" d="M1133.58, 795.63L1135.43, 796.13L1137.32, 797.1L1139.05, 798.35L1140.54, 799.87L1141.72, 801.65L1142.48, 803.95L1142.76, 806.12L1142.61, 808.14L1142.09, 809.98L1141.24, 811.64L1140.12, 813.1L1138.78, 814.35L1137.26, 815.36L1135.62, 816.12L1133.91, 816.62L1132.18, 816.84L1130.49, 816.76L1128.87, 816.37L1127.38, 815.65L1126.08, 814.59L1125.01, 813.17L1123.52, 810.54L1122.65, 807.66L1122.39, 804.65L1122.69, 801.65L1123.47, 799.85L1124.64, 798.34L1126.12, 797.14L1127.83, 796.26L1129.7, 795.7L1131.64, 795.49Z"/><path stroke="black" fill="none" stroke-width="1" d="M1194.79, 789.8L1196.86, 790.04L1198.87, 790.48L1200.82, 791.14L1202.67, 792L1204.42, 793.06L1206.04, 794.33L1207.5, 795.8L1208.79, 797.48L1209.89, 799.36L1211.07, 801.9L1211.77, 804.43L1212.01, 806.93L1211.84, 809.38L1211.29, 811.74L1210.38, 813.99L1209.15, 816.09L1207.62, 818.01L1205.84, 819.72L1203.83, 821.19L1201.63, 822.4L1199.27, 823.32L1196.77, 823.9L1194.18, 824.13L1191.51, 823.98L1188.82, 823.4L1186.14, 822.5L1183.46, 821.1L1180.92, 819.22L1178.67, 816.88L1176.85, 814.11L1175.61, 810.92L1175.25, 809.17L1175.09, 807.33L1175.14, 805.4L1175.43, 803.38L1176.37, 800.83L1177.57, 798.39L1179.03, 796.09L1180.72, 793.96L1182.55, 792.74L1184.47, 791.72L1186.47, 790.92L1188.52, 790.33L1190.6, 789.94L1192.7, 789.77Z"/><path stroke="black" fill="none" stroke-width="1" d="M1196.6, 796.35L1198.3, 796.69L1200.61, 797.9L1202.45, 799.33L1203.86, 800.92L1204.84, 802.64L1205.44, 804.44L1205.67, 806.29L1205.56, 808.13L1205.15, 809.92L1204.44, 811.63L1203.48, 813.21L1202.29, 814.61L1200.89, 815.79L1199.31, 816.72L1197.58, 817.34L1195.72, 817.61L1193.76, 817.5L1192.48, 817.29L1191.22, 816.81L1190.01, 816.08L1188.88, 815.13L1187.85, 813.98L1186.96, 812.67L1186.23, 811.23L1185.68, 809.67L1185.35, 808.04L1185.27, 806.35L1185.46, 804.63L1185.96, 802.92L1186.78, 801.24L1187.96, 799.61L1189.52, 798.08L1191.5, 796.65L1193.19, 796.31L1194.9, 796.22Z"/><path stroke="black" fill="none" stroke-width="1" d="M1258.31, 789.91L1261.36, 790.48L1264.23, 791.57L1266.93, 793.21L1269.46, 795.42L1271.82, 798.23L1273.19, 800.87L1274.06, 803.48L1274.46, 806.05L1274.42, 808.54L1273.98, 810.93L1273.18, 813.21L1272.05, 815.33L1270.63, 817.29L1268.95, 819.04L1267.05, 820.58L1264.96, 821.87L1262.72, 822.89L1260.36, 823.61L1257.92, 824.01L1255.44, 824.07L1252.94, 823.76L1250.46, 823.25L1248.08, 822.39L1245.85, 821.21L1243.79, 819.74L1241.92, 818.02L1240.29, 816.08L1238.9, 813.96L1237.8, 811.7L1237.22, 808.61L1237.28, 805.5L1237.93, 802.46L1239.12, 799.56L1240.77, 796.88L1242.84, 794.51L1245.26, 792.52L1247.98, 790.99L1251.63, 790.19L1255.07, 789.82Z"/><path stroke="black" fill="none" stroke-width="1" d="M1260.14, 795.57L1261.6, 796.05L1262.99, 796.74L1264.26, 797.62L1265.39, 798.67L1266.35, 799.88L1267.12, 801.22L1267.68, 802.57L1267.98, 803.97L1268.05, 805.39L1267.91, 806.83L1267.16, 809.66L1266, 812.3L1264, 814.06L1261.84, 815.34L1259.61, 816.11L1257.38, 816.34L1255.22, 816.01L1253.19, 815.09L1251.37, 813.56L1249.84, 811.39L1249.08, 810.54L1248.42, 808.84L1247.99, 807.21L1247.79, 805.66L1247.78, 804.18L1248.31, 801.5L1249.43, 799.22L1251, 797.41L1252.9, 796.12L1254.96, 795.4L1257.06, 795.32L1258.62, 795.32Z"/><path stroke="black" fill="none" stroke-width="1" d="M1321.9, 789.89L1324.71, 790.62L1327.27, 791.73L1329.57, 793.18L1331.59, 794.93L1333.3, 796.92L1334.7, 799.12L1335.75, 801.46L1336.43, 803.92L1336.74, 806.42L1336.65, 808.94L1336.14, 811.43L1335.19, 813.82L1333.78, 816.09L1331.89, 818.18L1329.47, 820.36L1326.86, 821.99L1324.11, 823.09L1321.29, 823.69L1318.44, 823.84L1315.61, 823.55L1312.85, 822.87L1310.22, 821.83L1307.77, 820.45L1305.56, 818.78L1303.62, 816.83L1302.02, 814.65L1300.8, 812.27L1300.03, 809.72L1299.74, 807.03L1299.99, 804.23L1300.72, 801.47L1301.92, 798.91L1303.52, 796.59L1305.47, 794.54L1307.72, 792.8L1310.2, 791.4L1312.86, 790.39L1315.63, 789.8L1318.87, 789.61Z"/><path stroke="black" fill="none" stroke-width="1" d="M1320.57, 794.89L1323.12, 796.01L1325.26, 797.71L1326.91, 799.86L1327.97, 802.35L1328.33, 805.04L1328.22, 806.43L1327.91, 807.82L1327.37, 809.2L1326.61, 810.56L1325.59, 811.87L1324.33, 813.13L1323.36, 814.07L1322.22, 814.8L1320.95, 815.33L1319.59, 815.65L1318.16, 815.76L1316.7, 815.65L1315.25, 815.32L1313.84, 814.77L1312.5, 813.99L1311.27, 812.97L1310.18, 811.72L1309.27, 810.23L1308.57, 808.5L1308.12, 806.51L1307.94, 804.28L1308.08, 801.79L1308.87, 799.59L1310.23, 797.68L1312.02, 796.14L1314.1, 795.05L1315.69, 794.79L1317.31, 794.72Z"/><path stroke="black" fill="none" stroke-width="1" d="M1381.39, 789.62L1383.59, 789.93L1385.71, 790.49L1387.76, 791.28L1389.7, 792.27L1391.51, 793.44L1393.17, 794.78L1394.66, 796.25L1395.97, 797.86L1397.07, 799.56L1397.93, 801.34L1398.54, 803.19L1398.88, 805.08L1398.93, 806.98L1398.75, 809.59L1398.13, 812.05L1397.12, 814.32L1395.76, 816.39L1394.09, 818.24L1392.16, 819.85L1390.01, 821.2L1387.68, 822.28L1385.22, 823.05L1382.66, 823.5L1380.05, 823.62L1377.43, 823.37L1374.84, 822.74L1372.33, 821.72L1369.94, 820.27L1367.72, 818.38L1366.26, 816.89L1364.96, 815.23L1363.85, 813.43L1362.96, 811.52L1362.34, 809.53L1362.01, 807.47L1362.02, 805.39L1362.41, 803.3L1363.08, 801.07L1364.07, 798.99L1365.35, 797.07L1366.87, 795.34L1368.6, 793.78L1370.5, 792.43L1372.52, 791.28L1374.63, 790.35L1376.89, 789.81L1379.15, 789.57Z"/><path stroke="black" fill="none" stroke-width="1" d="M1382.96, 793.52L1384.71, 793.95L1386.39, 794.64L1387.94, 795.57L1389.32, 796.74L1390.49, 798.12L1391.38, 799.69L1391.9, 801.32L1392.01, 803.02L1391.71, 806.44L1391.1, 807.6L1390.78, 808.88L1389.69, 810.64L1388.28, 812.13L1386.61, 813.32L1384.75, 814.18L1382.77, 814.66L1380.75, 814.73L1378.75, 814.36L1376.84, 813.52L1375.93, 813L1375.17, 812.35L1373.99, 810.75L1372.26, 807.1L1372.03, 804.04L1372.22, 801.41L1372.79, 799.18L1373.67, 797.34L1374.83, 795.86L1376.21, 794.75L1377.76, 793.97L1379.43, 793.52L1381.18, 793.37Z"/><path stroke="black" fill="none" stroke-width="1" d="M1259.67, 850.08L1263.19, 851.01L1266.32, 852.51L1269.01, 854.52L1271.27, 856.96L1273.05, 859.77L1274.36, 862.87L1274.79, 865.58L1274.81, 868.16L1274.46, 870.59L1273.76, 872.87L1272.74, 874.98L1271.44, 876.9L1269.9, 878.63L1268.14, 880.14L1266.19, 881.44L1264.09, 882.49L1261.86, 883.29L1259.55, 883.82L1257.19, 884.07L1254.79, 884.03L1252.41, 883.68L1250.06, 883.01L1247.4, 881.91L1244.75, 880.15L1242.27, 877.83L1240.16, 875.03L1238.59, 871.83L1238.06, 870.12L1237.74, 868.33L1237.64, 866.49L1237.79, 864.6L1238.21, 862.68L1238.92, 860.74L1239.95, 858.9L1241.15, 857.16L1242.51, 855.53L1244.03, 854.05L1245.7, 852.75L1247.5, 851.67L1249.43, 850.82L1251.47, 850.23L1253.66, 849.92L1255.75, 849.8Z"/><path stroke="black" fill="none" stroke-width="1" d="M1257.8, 855.34L1259.31, 855.67L1260.77, 856.2L1262.17, 856.96L1263.46, 857.94L1264.63, 859.14L1265.63, 860.58L1266.46, 862.24L1266.9, 864.2L1266.97, 866.2L1266.68, 868.18L1266.05, 870.08L1265.1, 871.84L1263.86, 873.4L1262.35, 874.7L1260.58, 875.67L1258.87, 876.25L1257.23, 876.53L1255.69, 876.52L1254.23, 876.26L1252.88, 875.76L1251.65, 875.05L1250.52, 874.16L1249.53, 873.1L1247.95, 870.58L1246.98, 867.68L1246.67, 864.59L1247.09, 861.5L1247.69, 860.06L1248.5, 858.79L1249.49, 857.72L1250.65, 856.83L1251.94, 856.13L1253.32, 855.63L1254.78, 855.33L1256.29, 855.23Z"/><path stroke="black" fill="none" stroke-width="1" d="M1323.69, 850.19L1326.86, 851.4L1329.77, 853.15L1332.32, 855.39L1334.44, 858.05L1336.02, 861.05L1336.98, 864.33L1337.2, 867.45L1336.76, 870.51L1335.73, 873.43L1334.19, 876.13L1332.2, 878.52L1329.82, 880.54L1327.13, 882.09L1324.19, 883.1L1321.54, 883.68L1318.93, 883.87L1316.37, 883.71L1313.9, 883.21L1311.55, 882.42L1309.34, 881.34L1307.3, 880.01L1305.47, 878.46L1303.86, 876.72L1302.5, 874.8L1301.43, 872.73L1300.67, 870.56L1300.25, 868.29L1300.2, 865.95L1300.54, 863.58L1301.31, 861.2L1302.41, 858.9L1303.84, 856.79L1305.54, 854.9L1307.5, 853.27L1309.65, 851.9L1311.97, 850.84L1314.41, 850.1L1316.93, 849.7L1320.35, 849.6Z"/><path stroke="black" fill="none" stroke-width="1" d="M1320.76, 854.01L1322.56, 854.37L1324.29, 854.99L1325.91, 855.87L1327.36, 856.99L1328.6, 858.35L1329.58, 859.94L1330.24, 861.75L1330.54, 863.77L1330.5, 865.62L1330.14, 867.43L1329.5, 869.16L1328.59, 870.76L1327.43, 872.19L1326.05, 873.4L1324.47, 874.34L1322.72, 874.97L1319.91, 875.31L1317.28, 874.97L1314.92, 874.01L1312.91, 872.48L1311.33, 870.42L1310.26, 867.89L1309.78, 864.94L1309.79, 863.32L1309.98, 861.62L1310.52, 859.57L1311.39, 857.86L1312.53, 856.46L1313.92, 855.38L1315.48, 854.6L1317.17, 854.12L1318.95, 853.93Z"/><path stroke="black" fill="none" stroke-width="1" d="M1382.34, 849.41L1384.91, 849.8L1387.39, 850.52L1389.75, 851.55L1391.94, 852.89L1393.92, 854.53L1395.64, 856.46L1397.07, 858.67L1398.15, 861.16L1398.85, 863.91L1399.12, 866.92L1398.92, 870.17L1398.21, 873.66L1396.5, 875.9L1394.7, 877.83L1392.83, 879.46L1390.9, 880.8L1388.94, 881.87L1386.95, 882.67L1384.94, 883.23L1382.94, 883.54L1380.95, 883.63L1378.99, 883.51L1377.07, 883.18L1375.22, 882.67L1371.73, 881.11L1368.65, 878.95L1366.09, 876.27L1365.03, 874.77L1364.15, 873.18L1363.45, 871.5L1362.95, 869.76L1362.67, 867.96L1362.62, 866.12L1362.8, 864.25L1363.25, 862.36L1363.96, 860.46L1364.96, 858.57L1366.26, 856.69L1367.87, 854.85L1369.81, 853.05L1372.09, 851.3L1374.56, 850.29L1377.12, 849.65L1379.73, 849.36Z"/><path stroke="black" fill="none" stroke-width="1" d="M1384.58, 855.05L1386.89, 855.74L1388.96, 856.9L1390.71, 858.46L1392.07, 860.35L1392.98, 862.51L1393.35, 864.86L1393.14, 867.34L1392.25, 869.88L1392.48, 870.86L1391.29, 870.53L1391.64, 871.3L1392, 872.08L1391.29, 871.74L1390.74, 872.81L1390.04, 873.75L1388.26, 875.21L1386.12, 876.12L1383.8, 876.47L1381.44, 876.26L1379.23, 875.51L1377.31, 874.21L1375.87, 872.36L1374.71, 869.7L1373.94, 867.29L1373.54, 865.12L1373.46, 863.19L1373.66, 861.47L1374.12, 859.98L1374.79, 858.69L1375.64, 857.6L1376.64, 856.7L1377.74, 855.98L1380.12, 855.06L1382.49, 854.77Z"/><path stroke="black" fill="none" stroke-width="1" d="M1134.62, 850.16L1136.99, 850.73L1139.29, 851.61L1141.5, 852.81L1143.59, 854.35L1145.5, 856.24L1147.23, 858.48L1148.72, 861.07L1149.37, 863.95L1149.7, 866.73L1149.66, 869.4L1149.23, 871.94L1148.36, 874.34L1147.03, 876.58L1145.18, 878.66L1142.8, 880.55L1141.13, 881.68L1139.34, 882.61L1137.45, 883.32L1135.47, 883.82L1133.44, 884.11L1131.38, 884.19L1129.31, 884.06L1127.25, 883.71L1125.22, 883.14L1123.26, 882.37L1121.38, 881.37L1119.61, 880.17L1117.97, 878.74L1116.49, 877.1L1115.18, 875.24L1114.08, 873.16L1113.42, 871.26L1113.02, 869.3L1112.88, 867.3L1112.99, 865.31L1113.36, 863.34L1113.97, 861.44L1114.83, 859.63L1115.93, 857.95L1117.37, 856.04L1119.05, 854.38L1120.93, 852.97L1122.99, 851.81L1125.17, 850.91L1127.46, 850.29L1129.82, 849.96L1132.22, 849.91Z"/><path stroke="black" fill="none" stroke-width="1" d="M1134.83, 856.65L1137.21, 857.53L1139.3, 858.96L1140.92, 860.6L1142.08, 862.36L1142.8, 864.2L1143.13, 866.09L1143.09, 867.97L1142.72, 869.81L1142.04, 871.56L1141.08, 873.17L1139.88, 874.62L1138.47, 875.85L1136.88, 876.83L1135.14, 877.5L1133.28, 877.84L1131.34, 877.79L1129.34, 877.31L1127.31, 876.36L1126.17, 875.55L1125.07, 874.33L1124.07, 872.79L1123.22, 871.01L1122.58, 869.07L1122.2, 867.05L1122.14, 865.03L1122.45, 863.09L1122.93, 861.78L1123.57, 860.6L1125.26, 858.68L1127.37, 857.33L1129.77, 856.54L1132.3, 856.32Z"/><path stroke="black" fill="none" stroke-width="1" d="M1196.71, 850.04L1199.42, 850.63L1201.92, 851.58L1204.2, 852.83L1206.24, 854.37L1208.02, 856.15L1209.51, 858.13L1210.71, 860.27L1211.59, 862.54L1212.13, 864.91L1212.32, 867.33L1212.13, 869.76L1211.56, 872.18L1210.57, 874.53L1208.87, 877.11L1206.86, 879.28L1204.6, 881.04L1202.13, 882.4L1199.52, 883.36L1196.8, 883.94L1194.04, 884.13L1191.28, 883.95L1188.57, 883.4L1185.97, 882.49L1183.53, 881.22L1181.3, 879.6L1179.33, 877.63L1177.67, 875.32L1176.37, 872.69L1175.49, 869.72L1175.26, 867.53L1175.44, 865.34L1176.41, 861.03L1177.81, 858.75L1178.97, 856.97L1180.01, 855.59L1181.04, 854.5L1182.19, 853.58L1183.57, 852.72L1185.31, 851.81L1187.52, 850.74L1190.74, 850.06L1193.81, 849.83Z"/><path stroke="black" fill="none" stroke-width="1" d="M1196.72, 855.76L1198.84, 856.26L1200.83, 857.15L1202.59, 858.41L1204.04, 860.02L1204.97, 861.44L1205.59, 862.98L1205.92, 864.61L1205.98, 866.29L1205.81, 867.98L1205.42, 869.64L1204.84, 871.23L1204.1, 872.71L1203.08, 873.9L1202.01, 874.89L1199.75, 876.31L1197.42, 877.04L1195.1, 877.17L1192.9, 876.76L1190.92, 875.9L1189.26, 874.66L1188.01, 873.12L1186.87, 871.41L1186.05, 869.5L1185.55, 867.47L1185.4, 865.38L1185.62, 863.32L1186.22, 861.36L1187.23, 859.58L1188.65, 858.05L1190.43, 856.79L1192.43, 856L1194.55, 855.67Z"/><path stroke="black" fill="none" stroke-width="1" d="M1133.3, 910.32L1135.46, 910.64L1137.52, 911.18L1139.48, 911.93L1141.31, 912.88L1143, 914L1144.54, 915.29L1145.92, 916.73L1147.12, 918.3L1148.12, 919.98L1148.92, 921.76L1149.49, 923.63L1149.83, 925.56L1149.92, 927.55L1149.75, 929.57L1149.22, 932.23L1148.3, 934.64L1147.02, 936.8L1145.43, 938.69L1143.57, 940.32L1141.49, 941.67L1139.24, 942.75L1136.85, 943.55L1134.37, 944.06L1131.85, 944.27L1129.33, 944.18L1126.86, 943.78L1124.48, 943.08L1122.23, 942.06L1120.17, 940.71L1118.32, 939.03L1116.06, 936.46L1114.42, 933.6L1113.42, 930.55L1113.05, 927.4L1113.35, 924.25L1114.31, 921.2L1115.95, 918.34L1118.29, 915.78L1120.47, 913.71L1123.01, 912.13L1125.8, 911.04L1128.75, 910.43L1131.06, 910.25Z"/><path stroke="black" fill="none" stroke-width="1" d="M1134.32, 915.63L1135.97, 916.01L1137.56, 916.64L1139.05, 917.51L1140.39, 918.63L1141.55, 920.01L1142.48, 921.65L1143.32, 923.86L1143.56, 926.16L1143.28, 928.46L1142.51, 930.67L1141.31, 932.68L1139.74, 934.42L1137.84, 935.77L1135.68, 936.65L1133.9, 936.87L1132.28, 936.86L1130.81, 936.64L1129.48, 936.24L1128.29, 935.68L1127.23, 934.97L1125.5, 933.18L1124.25, 931.06L1123.45, 928.74L1123.06, 926.4L1123.05, 924.19L1123.14, 922.38L1123.57, 920.78L1124.3, 919.38L1125.28, 918.19L1126.48, 917.21L1127.85, 916.44L1129.37, 915.9L1130.97, 915.58L1132.64, 915.49Z"/><path stroke="black" fill="none" stroke-width="1" d="M1196.15, 910.14L1198.46, 910.54L1200.72, 911.24L1202.87, 912.22L1204.9, 913.46L1206.77, 914.93L1208.44, 916.62L1209.88, 918.49L1211.07, 920.54L1211.95, 922.72L1212.51, 925.02L1212.7, 927.42L1212.49, 929.89L1211.85, 932.41L1210.75, 934.95L1208.96, 937.54L1206.79, 939.76L1204.28, 941.58L1201.45, 942.94L1198.34, 943.82L1194.96, 944.18L1191.36, 943.96L1187.54, 943.15L1185.7, 942.39L1183.93, 941.4L1182.26, 940.2L1180.72, 938.81L1179.33, 937.26L1178.13, 935.55L1177.14, 933.7L1176.39, 931.74L1175.91, 929.68L1175.72, 927.54L1175.86, 925.34L1176.36, 923.1L1177.24, 920.82L1178.53, 918.54L1180.26, 916.27L1182.45, 914.03L1184.45, 912.6L1186.7, 911.58L1189.07, 910.88L1191.48, 910.36L1193.81, 910.08Z"/><path stroke="black" fill="none" stroke-width="1" d="M1196.46, 914.62L1198.18, 915.06L1199.83, 915.81L1201.38, 916.88L1202.79, 918.29L1204.01, 920.06L1204.74, 922.84L1205.14, 925.73L1205.12, 927.16L1204.9, 928.56L1204.43, 929.91L1203.69, 931.18L1202.31, 932.78L1200.73, 934.2L1198.93, 935.29L1196.91, 935.92L1195.23, 936.22L1193.49, 936.13L1191.75, 935.6L1190.07, 934.61L1188.49, 933.12L1187.07, 931.08L1185.85, 928.45L1184.91, 925.2L1184.66, 923.37L1184.79, 921.66L1185.26, 920.1L1186.04, 918.69L1187.07, 917.46L1188.32, 916.41L1189.75, 915.57L1191.32, 914.96L1192.99, 914.59L1194.72, 914.47Z"/><path stroke="black" fill="none" stroke-width="1" d="M1257.57, 909.94L1260.26, 910.36L1262.87, 911.15L1265.35, 912.26L1267.65, 913.66L1269.73, 915.33L1271.54, 917.23L1273.04, 919.32L1274.19, 921.58L1274.94, 923.96L1275.24, 926.44L1275.05, 928.98L1274.64, 931.48L1273.84, 933.82L1272.69, 936L1271.21, 937.97L1269.45, 939.72L1267.42, 941.22L1265.18, 942.44L1262.74, 943.36L1260.15, 943.95L1257.43, 944.18L1254.62, 944.03L1251.74, 943.48L1248.85, 942.49L1245.95, 941.04L1243.1, 939.11L1240.32, 936.67L1239.88, 935.19L1239.25, 933.1L1238.64, 930.52L1238.31, 927.58L1238.47, 924.38L1238.81, 922.73L1239.36, 921.05L1240.16, 919.37L1241.23, 917.7L1242.6, 916.06L1244.31, 914.45L1246.78, 912.56L1249.39, 911.19L1252.08, 910.33L1254.82, 909.92Z"/><path stroke="black" fill="none" stroke-width="1" d="M1258.59, 914.7L1260.37, 915.12L1262.09, 915.8L1263.68, 916.72L1265.12, 917.87L1266.34, 919.24L1267.29, 920.8L1267.93, 922.55L1268.21, 924.47L1268.08, 926.55L1267.69, 928.43L1266.96, 930.19L1265.94, 931.79L1264.65, 933.19L1263.15, 934.34L1261.46, 935.22L1259.64, 935.76L1257.71, 935.95L1255.64, 935.42L1253.59, 934.75L1251.72, 933.75L1250.19, 932.26L1249.27, 930.95L1248.54, 929.54L1248.01, 928.05L1247.68, 926.5L1247.55, 924.92L1247.62, 923.33L1247.89, 921.77L1248.37, 920.25L1249.24, 918.44L1250.39, 916.99L1251.77, 915.9L1253.33, 915.13L1255.02, 914.69L1256.79, 914.55Z"/><path stroke="black" fill="none" stroke-width="1" d="M1321.72, 909.93L1325.17, 910.75L1328.41, 912.18L1331.34, 914.15L1333.83, 916.63L1335.78, 919.57L1336.51, 921.19L1337.06, 922.91L1337.51, 924.68L1337.72, 926.45L1337.71, 928.22L1337.48, 929.96L1336.44, 933.32L1334.72, 936.42L1332.4, 939.13L1329.6, 941.33L1326.43, 942.92L1324.73, 943.45L1322.98, 943.77L1319.4, 944L1316.08, 943.72L1313.04, 942.97L1310.29, 941.8L1307.86, 940.28L1305.75, 938.44L1303.99, 936.34L1302.6, 934.04L1301.58, 931.58L1300.97, 929.02L1300.77, 926.4L1300.99, 923.79L1301.67, 921.22L1302.81, 918.75L1304.44, 916.44L1306.56, 914.34L1308.39, 912.97L1310.38, 911.86L1312.49, 910.98L1314.68, 910.3L1318.19, 909.77Z"/><path stroke="black" fill="none" stroke-width="1" d="M1320.7, 915.3L1322.26, 915.57L1323.82, 916.09L1325.36, 916.87L1327.14, 918.08L1328.53, 919.56L1329.55, 921.24L1330.21, 923.08L1330.52, 925.05L1330.49, 927.08L1330.16, 929.14L1329.52, 931.19L1328.44, 932.63L1327.29, 933.86L1326.09, 934.88L1324.84, 935.69L1323.55, 936.29L1322.25, 936.69L1320.93, 936.88L1319.62, 936.87L1318.33, 936.66L1317.07, 936.25L1315.84, 935.64L1314.68, 934.83L1313.57, 933.83L1312.55, 932.64L1311.61, 931.25L1310.78, 929.67L1310.24, 927.64L1310.01, 925.72L1310.06, 923.94L1310.36, 922.29L1310.89, 920.79L1311.63, 919.45L1312.56, 918.28L1313.65, 917.28L1314.88, 916.47L1316.22, 915.85L1317.65, 915.45L1319.15, 915.26Z"/><path stroke="black" fill="none" stroke-width="1" d="M1383.95, 909.79L1386.77, 910.35L1389.43, 911.33L1391.88, 912.67L1394.08, 914.34L1396, 916.29L1397.61, 918.47L1398.87, 920.84L1399.74, 923.34L1400.2, 925.94L1400.2, 928.58L1399.7, 931.22L1398.68, 933.82L1397.1, 936.32L1394.92, 938.68L1392.57, 940.71L1390.02, 942.22L1387.33, 943.24L1384.56, 943.78L1381.74, 943.9L1378.94, 943.6L1376.22, 942.91L1373.61, 941.88L1371.18, 940.51L1368.98, 938.85L1367.06, 936.92L1365.47, 934.74L1364.27, 932.35L1363.51, 929.77L1363.24, 927.03L1363.52, 924.16L1364.15, 921.56L1365.24, 919.13L1366.71, 916.93L1368.52, 914.96L1370.6, 913.27L1372.89, 911.88L1375.35, 910.82L1377.91, 910.11L1380.98, 909.7Z"/><path stroke="black" fill="none" stroke-width="1" d="M1383.38, 913.95L1385.52, 914.43L1387.71, 915.58L1389.68, 917.1L1391.29, 918.97L1392.4, 921.18L1392.7, 924.21L1392.46, 926.93L1391.71, 929.33L1390.52, 931.38L1388.92, 933.04L1386.96, 934.29L1384.68, 935.1L1382.13, 935.44L1379.56, 934.83L1377.09, 933.88L1376.92, 932.83L1375.63, 931.53L1374.7, 929.99L1373.07, 926.75L1372.84, 924.62L1372.84, 922.72L1373.05, 921.02L1373.46, 919.53L1374.04, 918.24L1374.77, 917.13L1375.62, 916.2L1376.58, 915.44L1378.74, 914.39L1381.06, 913.92Z"/><path stroke="black" fill="none" stroke-width="1" d="M1384.15, 970.12L1387.31, 970.67L1390.26, 971.7L1393.01, 973.28L1395.56, 975.47L1397.9, 978.33L1400.05, 981.92L1400.45, 984.9L1400.59, 987.92L1400.3, 990.9L1399.4, 993.78L1398.35, 995.63L1397.09, 997.35L1395.65, 998.91L1394.04, 1000.31L1392.28, 1001.52L1390.41, 1002.54L1388.43, 1003.33L1386.38, 1003.89L1383.12, 1004.15L1380.02, 1003.96L1377.13, 1003.34L1374.45, 1002.35L1372.02, 1001.03L1369.87, 999.4L1368, 997.52L1366.46, 995.43L1365.26, 993.16L1364.43, 990.76L1363.99, 988.27L1363.96, 985.73L1364.38, 983.17L1365.26, 980.65L1366.64, 978.2L1368.52, 975.86L1370.28, 974.26L1372.13, 972.75L1377.19, 970.27L1380.77, 970.01Z"/><path stroke="black" fill="none" stroke-width="1" d="M1386.15, 975.99L1388.11, 976.82L1389.79, 977.8L1391.2, 978.93L1392.36, 980.17L1393.26, 981.51L1393.92, 982.92L1394.32, 984.38L1394.5, 985.88L1394.44, 987.39L1394.15, 988.89L1393.64, 990.35L1392.92, 991.76L1391.98, 993.1L1390.84, 994.33L1389.51, 995.45L1387.98, 996.43L1386.41, 996.96L1384.78, 997.21L1383.13, 997.21L1381.49, 996.94L1379.93, 996.43L1378.47, 995.67L1377.17, 994.66L1376.06, 993.42L1374.52, 989.96L1373.96, 988.16L1373.83, 986.27L1373.98, 983.43L1374.84, 980.7L1375.54, 979.47L1376.42, 978.36L1377.47, 977.41L1378.69, 976.65L1380.46, 975.94L1382.33, 975.72Z"/><path stroke="black" fill="none" stroke-width="1" d="M1133.51, 970.72L1135.58, 971.02L1137.51, 971.5L1139.3, 972.13L1142.47, 973.83L1145.09, 976.03L1147.14, 978.61L1148.63, 981.5L1149.54, 984.58L1149.88, 987.76L1149.63, 990.93L1148.8, 994.01L1147.38, 996.89L1145.37, 999.48L1142.75, 1001.67L1141.21, 1002.58L1139.52, 1003.36L1137.68, 1004L1135.69, 1004.47L1132.04, 1004.62L1128.69, 1004.33L1125.64, 1003.64L1122.91, 1002.6L1120.5, 1001.23L1118.42, 999.59L1116.68, 997.7L1115.28, 995.62L1114.24, 993.37L1113.56, 991.01L1113.25, 988.57L1113.31, 986.09L1113.76, 983.61L1114.61, 981.17L1115.86, 978.81L1117.51, 976.57L1119.45, 974.73L1121.66, 973.25L1124.04, 972.03L1126.5, 970.97L1128.97, 970.68L1131.31, 970.6Z"/><path stroke="black" fill="none" stroke-width="1" d="M1135.37, 976.64L1137.31, 977.29L1139.72, 978.69L1141.69, 980.56L1143.16, 982.8L1144.03, 985.3L1144.23, 987.97L1144.04, 989.33L1143.66, 990.71L1143.06, 992.07L1142.25, 993.42L1141.2, 994.73L1139.9, 996L1138.42, 997.13L1136.67, 997.85L1134.74, 998.14L1132.73, 998L1130.71, 997.43L1128.77, 996.41L1127, 994.95L1125.49, 993.03L1124.33, 988.96L1123.83, 987.04L1123.62, 985.15L1123.89, 983.26L1124.8, 981.32L1125.56, 980.33L1126.54, 979.31L1127.78, 978.27L1129.3, 977.19L1131.28, 976.72L1133.33, 976.49Z"/><path stroke="black" fill="none" stroke-width="1" d="M1198.85, 970.73L1201.91, 971.73L1204.66, 973.24L1207.07, 975.17L1209.11, 977.46L1210.73, 980.03L1211.91, 982.8L1212.61, 985.71L1212.8, 988.68L1212.44, 991.63L1211.49, 994.49L1209.92, 997.19L1207.7, 999.65L1204.79, 1001.8L1203.06, 1002.74L1201.15, 1003.57L1199.06, 1004.2L1196.93, 1004.58L1194.79, 1004.72L1192.66, 1004.62L1190.56, 1004.29L1188.52, 1003.74L1186.55, 1002.99L1184.67, 1002.03L1182.92, 1000.87L1181.31, 999.54L1179.86, 998.03L1178.6, 996.35L1177.55, 994.51L1176.73, 992.52L1176.16, 990.39L1175.87, 988.13L1176.12, 984.86L1177.03, 981.75L1178.54, 978.88L1180.54, 976.31L1182.97, 974.12L1185.74, 972.38L1188.77, 971.16L1191.96, 970.54L1195.53, 970.31Z"/><path stroke="black" fill="none" stroke-width="1" d="M1199.39, 976.25L1201.98, 977.48L1203.16, 978.38L1204.22, 979.47L1205.19, 980.72L1205.93, 982.1L1206.45, 983.58L1206.75, 985.14L1206.83, 986.73L1206.7, 988.32L1206.35, 989.88L1205.79, 991.38L1205.01, 992.77L1204.03, 994.04L1202.85, 995.14L1201.46, 996.05L1199.87, 996.72L1198.07, 997.13L1196.08, 997.24L1193.9, 997.02L1192.84, 996.63L1191.88, 996.05L1190.24, 994.41L1188.94, 992.31L1187.96, 989.97L1187.28, 987.61L1186.87, 985.44L1186.7, 983.67L1186.75, 982.52L1187.06, 981.22L1187.58, 980.05L1188.29, 979L1189.17, 978.09L1191.33, 976.7L1193.88, 975.9L1196.62, 975.73Z"/><path stroke="black" fill="none" stroke-width="1" d="M1258.72, 970.16L1260.81, 970.51L1262.86, 971.09L1264.85, 971.89L1266.75, 972.91L1268.53, 974.12L1270.16, 975.53L1271.63, 977.1L1272.91, 978.84L1273.96, 980.72L1274.77, 982.74L1275.31, 984.88L1275.55, 987.13L1275.47, 989.48L1274.92, 992.37L1273.94, 994.94L1272.6, 997.19L1270.94, 999.13L1269.01, 1000.76L1266.85, 1002.08L1264.51, 1003.09L1262.05, 1003.8L1259.5, 1004.2L1256.92, 1004.31L1254.36, 1004.11L1251.86, 1003.62L1249.47, 1002.84L1247.24, 1001.77L1245.21, 1000.41L1243.44, 998.76L1241.35, 996.24L1239.84, 993.35L1238.93, 990.21L1238.63, 986.96L1239.01, 984.1L1239.86, 981.37L1241.14, 978.81L1242.8, 976.48L1244.81, 974.45L1247.12, 972.77L1249.68, 971.5L1252.46, 970.69L1254.52, 970.24L1256.61, 970.07Z"/><path stroke="black" fill="none" stroke-width="1" d="M1258.98, 975.91L1261.51, 976.3L1263.92, 977.3L1264.99, 978.02L1265.93, 978.89L1266.71, 979.91L1267.28, 981.07L1267.17, 982.58L1266.84, 984.07L1266.66, 985.57L1267, 987.09L1268.03, 989L1268.41, 990.02L1268.55, 991.1L1267.83, 992.53L1266.89, 993.82L1265.77, 994.95L1264.49, 995.91L1263.08, 996.66L1261.58, 997.18L1260.01, 997.44L1258.4, 997.42L1257.1, 997.36L1255.98, 997.14L1254.19, 996.27L1252.92, 994.99L1252.08, 993.46L1251.54, 991.85L1251.2, 990.34L1250.96, 989.07L1250.69, 988.23L1249.37, 985.27L1249.07, 983.72L1249.32, 982.11L1249.98, 980.73L1250.86, 979.47L1251.92, 978.36L1253.14, 977.43L1254.49, 976.69L1255.93, 976.17L1257.44, 975.9Z"/><path stroke="black" fill="none" stroke-width="1" d="M1323.97, 970.45L1326.64, 971.29L1329.13, 972.5L1331.4, 974.05L1333.41, 975.88L1335.13, 977.95L1336.53, 980.22L1337.57, 982.65L1338.21, 985.2L1338.42, 987.81L1338.16, 990.46L1337.4, 993.09L1336.1, 995.66L1334.22, 998.13L1332.8, 999.56L1331.31, 1000.77L1329.76, 1001.77L1328.18, 1002.57L1324.94, 1003.64L1321.73, 1004.11L1318.68, 1004.11L1315.9, 1003.75L1313.53, 1003.17L1311.69, 1002.47L1309.11, 1001.11L1306.72, 999.32L1304.63, 997.13L1302.96, 994.56L1301.81, 991.65L1301.3, 988.42L1301.32, 986.7L1301.53, 984.92L1301.96, 983.07L1302.62, 981.16L1303.48, 979.19L1304.62, 977.4L1306.01, 975.79L1307.6, 974.37L1309.35, 973.13L1311.24, 972.09L1313.2, 971.24L1315.22, 970.58L1318.23, 970.05L1321.15, 970.02Z"/><path stroke="black" fill="none" stroke-width="1" d="M1320.93, 975.88L1322.93, 976.25L1324.8, 977.08L1326.72, 978.4L1328.32, 980.13L1329.4, 982.18L1329.67, 983.31L1329.74, 984.49L1329.49, 988.32L1329.18, 990.21L1328.66, 992.06L1327.39, 993.9L1325.76, 995.43L1323.83, 996.55L1321.66, 997.17L1319.31, 997.2L1316.84, 996.54L1315.58, 995.93L1314.31, 995.11L1313.05, 994.07L1311.79, 992.81L1310.94, 990.77L1310.33, 988.88L1309.94, 987.13L1309.77, 985.53L1309.79, 984.06L1309.97, 982.73L1310.77, 980.46L1312.01, 978.68L1313.54, 977.37L1315.2, 976.48L1316.83, 976L1318.87, 975.83Z"/></svg>